<svg class="svg-icon" style="width: 1em; height: 1em;vertical-align: middle;fill: currentColor;overflow: hidden;" viewBox="0 0 1024 1024" version="1.1" xmlns="http://www.w3.org/2000/svg"><path d="M118.7 798.2h-27c-16.5 0-30-13.5-30-30V290.3c0-16.5 13.5-30 30-30h27v537.9z" fill="#898888" /><path d="M880.9 249.6c6.1 23.4 27.4 40.7 52.7 40.7h2.6v477.8l-0.1 0.1h-820l-0.1-0.1V290.3h320.4c25.3 0 46.6-17.3 52.7-40.7h391.8m12-30H477.3c-9 0-16.3 7.3-16.3 16.3 0 13.5-10.9 24.4-24.4 24.4H102.4c-9 0-16.3 7.3-16.3 16.3v491.6c0 16.5 13.5 30 30 30h820.1c16.5 0 30-13.5 30-30V276.6c0-9-7.3-16.3-16.3-16.3h-16.3c-13.5 0-24.4-10.9-24.4-24.4 0-9-7.3-16.3-16.3-16.3z" fill="#6D7677" /><path d="M914.2 708.6H97.4c-10.8 0-19.5-8.9-19.4-20l0.5-229.1c0-11 8.7-19.9 19.4-19.9h815.9c10.7 0 19.4 8.9 19.4 19.9l0.5 229.1c0 11-8.7 20-19.5 20z" fill="#CCCCCC" /><path d="M416.5 239.6v17H293.6v-17h122.9m16.2-20H277.3c-2 0-3.7 1.9-3.7 4.2l-0.1 48.6c0 2.3 1.7 4.2 3.7 4.2h155.6c2 0 3.7-1.9 3.7-4.2l-0.1-48.6c0-2.3-1.6-4.2-3.7-4.2zM229 239.6v17h-65.9v-17H229m17.6-20h-101c-1.3 0-2.4 1.9-2.4 4.2l-0.1 48.6c0 2.3 1.1 4.2 2.4 4.2h101.1c1.3 0 2.4-1.9 2.4-4.2l-0.1-48.6c0.1-2.3-1-4.2-2.3-4.2z" fill="#6D7677" /><path d="M702 645.5c-27.8 65.8-93 112-169 112-101.3 0-183.4-82.1-183.4-183.4S431.7 390.7 533 390.7s183.4 82.1 183.4 183.4c0 25.3-5.1 49.4-14.4 71.4z" fill="#2B292A" /><path d="M562.8 772.4c-109.4 0-198.4-89-198.4-198.4s89-198.4 198.4-198.4 198.4 89 198.4 198.4c0 26.8-5.2 52.8-15.6 77.2-31.1 73.7-102.9 121.2-182.8 121.2z m0-366.7c-92.8 0-168.4 75.5-168.4 168.4 0 92.8 75.5 168.4 168.4 168.4 67.8 0 128.7-40.4 155.1-102.8 8.8-20.7 13.2-42.8 13.2-65.5 0.1-93-75.4-168.5-168.3-168.5zM852.7 290.3V377H741.6v-86.7h111.1m0-30H741.6c-16.6 0-30 13.4-30 30V377c0 16.6 13.4 30 30 30h111.1c16.6 0 30-13.4 30-30v-86.7c0-16.5-13.4-30-30-30z" fill="#6D7677" /><path d="M648 350h-45.9c-16.6 0-30-13.4-30-30v-29.6c0-16.6 13.4-30 30-30H648c16.6 0 30 13.4 30 30V320c0 16.5-13.4 30-30 30z" fill="#494949" /><path d="M513.9 288.9m-28.5 0a28.5 28.5 0 1 0 57 0 28.5 28.5 0 1 0-57 0Z" fill="#FF5B7B" /><path d="M277.6 623m-53 0a53 53 0 1 0 106 0 53 53 0 1 0-106 0Z" fill="#999999" /></svg>