<svg class="svg-icon" style="width: 1em; height: 1em;vertical-align: middle;fill: currentColor;overflow: hidden;" viewBox="0 0 1024 1024" version="1.1" xmlns="http://www.w3.org/2000/svg"><path d="M118.7 793.9h-27c-16.5 0-30-13.5-30-30V253.4c0-16.5 13.5-30 30-30h27v570.5z" fill="#FF526B" /><path d="M936.2 253.4l0.1 510.4-0.1 0.1h-820l-0.1-0.1V253.4l0.1-0.1h820m0-29.9H116.1c-16.5 0-30 13.5-30 30v510.5c0 16.5 13.5 30 30 30h820.1c16.5 0 30-13.5 30-30V253.4c0-16.5-13.5-30-30-30z" fill="#6D7677" /><path d="M827.9 573.8H151.1c-8.9 0-16.1-7.3-16.1-16.3l0.4-187.4c0-9 7.2-16.3 16.1-16.3h676c8.9 0 16.1 7.3 16.1 16.3l0.4 187.4c0 9-7.2 16.3-16.1 16.3z" fill="#CCCCCC" /><path d="M351 463.8m-142.6 0a142.6 142.6 0 1 0 285.2 0 142.6 142.6 0 1 0-285.2 0Z" fill="#2B2B2B" /><path d="M701.4 463.8m-101.9 0a101.9 101.9 0 1 0 203.8 0 101.9 101.9 0 1 0-203.8 0Z" fill="#2B2B2B" /><path d="M411.2 486.3c-9.6 22.7-32 38.6-58.2 38.6-34.9 0-63.2-28.3-63.2-63.2s28.3-63.2 63.2-63.2 63.2 28.3 63.2 63.2c-0.1 8.8-1.8 17.1-5 24.6" fill="#FFFFFF" /><path d="M353 539.9c-43.1 0-78.2-35.1-78.2-78.2s35.1-78.2 78.2-78.2 78.2 35.1 78.2 78.2c0 10.5-2.1 20.8-6.1 30.4-12.4 29.1-40.6 47.8-72.1 47.8z m0-126.3c-26.6 0-48.2 21.6-48.2 48.2S326.4 510 353 510c19.4 0 36.8-11.5 44.4-29.4 2.5-5.9 3.8-12.2 3.8-18.7-0.1-26.7-21.7-48.3-48.2-48.3z" fill="#6D7677" /><path d="M703.4 461.8m-63.2 0a63.2 63.2 0 1 0 126.4 0 63.2 63.2 0 1 0-126.4 0Z" fill="#FFFFFF" /><path d="M703.4 539.9c-43.1 0-78.2-35.1-78.2-78.2s35.1-78.2 78.2-78.2 78.2 35.1 78.2 78.2-35.1 78.2-78.2 78.2z m0-126.3c-26.6 0-48.2 21.6-48.2 48.2s21.6 48.2 48.2 48.2 48.2-21.6 48.2-48.2-21.6-48.2-48.2-48.2zM747.6 701.6l16.6 62.2H288.1l16.6-62.2h442.9m23.1-30h-489l-32.6 122.2h554.2l-32.6-122.2z" fill="#6D7677" /><path d="M854.4 383.8l0.3 160h-657l0.3-160h656.4m0-30H198c-16.5 0-30 13.4-30 29.9l-0.3 160c0 16.6 13.4 30.1 30 30.1h657c16.6 0 30-13.5 30-30.1l-0.3-160c-0.1-16.5-13.5-29.9-30-29.9z" fill="#6D7677" /><path d="M163.3 292.4m-16.3 0a16.3 16.3 0 1 0 32.6 0 16.3 16.3 0 1 0-32.6 0Z" fill="#FFFFFF" /><path d="M163.3 318.7c-14.5 0-26.3-11.8-26.3-26.3s11.8-26.3 26.3-26.3 26.3 11.8 26.3 26.3-11.8 26.3-26.3 26.3z m0-32.6c-3.5 0-6.3 2.8-6.3 6.3s2.8 6.3 6.3 6.3 6.3-2.8 6.3-6.3-2.8-6.3-6.3-6.3z" fill="#6D7677" /><path d="M889 292.4m-16.3 0a16.3 16.3 0 1 0 32.6 0 16.3 16.3 0 1 0-32.6 0Z" fill="#FFFFFF" /><path d="M889 318.7c-14.5 0-26.3-11.8-26.3-26.3s11.8-26.3 26.3-26.3 26.3 11.8 26.3 26.3-11.8 26.3-26.3 26.3z m0-32.6c-3.5 0-6.3 2.8-6.3 6.3s2.8 6.3 6.3 6.3 6.3-2.8 6.3-6.3-2.8-6.3-6.3-6.3z" fill="#6D7677" /><path d="M163.3 724.8m-16.3 0a16.3 16.3 0 1 0 32.6 0 16.3 16.3 0 1 0-32.6 0Z" fill="#FFFFFF" /><path d="M163.3 751.1c-14.5 0-26.3-11.8-26.3-26.3s11.8-26.3 26.3-26.3 26.3 11.8 26.3 26.3-11.8 26.3-26.3 26.3z m0-32.6c-3.5 0-6.3 2.8-6.3 6.3s2.8 6.3 6.3 6.3 6.3-2.8 6.3-6.3-2.8-6.3-6.3-6.3z" fill="#6D7677" /><path d="M889 724.8m-16.3 0a16.3 16.3 0 1 0 32.6 0 16.3 16.3 0 1 0-32.6 0Z" fill="#FFFFFF" /><path d="M889 751.1c-14.5 0-26.3-11.8-26.3-26.3s11.8-26.3 26.3-26.3 26.3 11.8 26.3 26.3-11.8 26.3-26.3 26.3z m0-32.6c-3.5 0-6.3 2.8-6.3 6.3s2.8 6.3 6.3 6.3 6.3-2.8 6.3-6.3-2.8-6.3-6.3-6.3z" fill="#6D7677" /></svg>