<svg class="svg-icon" style="width: 1em; height: 1em;vertical-align: middle;fill: currentColor;overflow: hidden;" viewBox="0 0 1024 1024" version="1.1" xmlns="http://www.w3.org/2000/svg"><path d="M774.6 954.3h-36V65.9c0-1.1 0.9-2 2-2h34c16.6 0 30 13.4 30 30v830.4c0 16.6-13.4 30-30 30z" fill="#F48134" /><path d="M749.9 93.9v830.4H249.2V93.9h500.7m0-30H249.2c-16.6 0-30 13.4-30 30v830.4c0 16.6 13.4 30 30 30h500.6c16.6 0 30-13.4 30-30V93.9c0.1-16.6-13.4-30-29.9-30z" fill="#6D7677" /><path d="M499.5 159.8c44.8 0 87 17.5 118.7 49.2 31.7 31.7 49.2 73.9 49.2 118.7s-17.5 87-49.2 118.7c-31.7 31.7-73.9 49.2-118.7 49.2s-87-17.5-118.7-49.2c-31.7-31.7-49.2-73.9-49.2-118.7s17.5-87 49.2-118.7c31.7-31.7 73.9-49.2 118.7-49.2m0-30c-109.3 0-197.9 88.6-197.9 197.9 0 109.3 88.6 197.9 197.9 197.9 109.3 0 197.9-88.6 197.9-197.9 0-109.3-88.6-197.9-197.9-197.9z" fill="#6D7677" /><path d="M706.3 880.1s-87-8.2-174-8.2c-94.9 0-181.9 8.2-181.9 8.2-8.7 0-15.8-7.4-15.8-16.5V624.5c0-9.1 7.1-16.5 15.8-16.5 0 0 87 16.5 181.9 16.5 87 0 174-16.5 174-16.5 8.7 0 15.8 7.4 15.8 16.5v239.1c0 9.1-7 16.5-15.8 16.5z" fill="#F9E341" /><path d="M323.4 640.6c32.2 4.9 101.5 13.9 176.1 13.9 68.5 0 136-9 167.9-13.9v208.2c-30.4-2.4-98.6-7-167.9-7-75.5 0-145.5 4.7-176.1 7V640.6M680.9 608s-90.7 16.5-181.4 16.5c-98.9 0-189.6-16.5-189.6-16.5-9.1 0-16.5 7.4-16.5 16.5v239.1c0 9.1 7.4 16.5 16.5 16.5 0 0 90.7-8.2 189.6-8.2 90.7 0 181.4 8.2 181.4 8.2 9.1 0 16.5-7.4 16.5-16.5V624.5c0-9.1-7.4-16.5-16.5-16.5z" fill="#6D7677" /><path d="M429.5 744.1m-86.6 0a86.6 86.6 0 1 0 173.2 0 86.6 86.6 0 1 0-173.2 0Z" fill="#F2F2F2" /><path d="M429.5 687.5c31.2 0 56.6 25.4 56.6 56.6 0 31.2-25.4 56.6-56.6 56.6s-56.6-25.4-56.6-56.6c0-31.2 25.4-56.6 56.6-56.6m0-30c-47.8 0-86.6 38.8-86.6 86.6s38.8 86.6 86.6 86.6 86.6-38.8 86.6-86.6c-0.1-47.9-38.8-86.6-86.6-86.6z" fill="#6D7677" /><path d="M467.9 698.2c-0.8 0-1.7-0.1-2.5-0.2-8.2-1.4-13.7-9.1-12.3-17.3l6.9-41.4c1.4-8.2 9.1-13.7 17.3-12.3 8.2 1.4 13.7 9.1 12.3 17.3l-6.9 41.4c-1.2 7.3-7.6 12.5-14.8 12.5zM417.3 686.7c-2.3 0-4.5-0.5-6.7-1.6-7.4-3.7-10.4-12.7-6.7-20.1l16.5-33c3.7-7.4 12.7-10.4 20.1-6.7 7.4 3.7 10.4 12.7 6.7 20.1l-16.5 33c-2.6 5.3-7.9 8.3-13.4 8.3z" fill="#6D7677" /><path d="M437.7 397.8m-12.4 0a12.4 12.4 0 1 0 24.8 0 12.4 12.4 0 1 0-24.8 0Z" fill="#6D7677" /><path d="M561.4 397.8m-12.4 0a12.4 12.4 0 1 0 24.8 0 12.4 12.4 0 1 0-24.8 0Z" fill="#6D7677" /><path d="M499.5 377.2l-16.4-37.3 16.4-177.1L516 339.9z" fill="#4B5454" /><path d="M528.7 353.4l-31.4 1.6-129.7-68.5 139.8 43.8z" fill="#6D7677" /></svg>