<svg class="svg-icon" style="width: 1em; height: 1em;vertical-align: middle;fill: currentColor;overflow: hidden;" viewBox="0 0 1024 1024" version="1.1" xmlns="http://www.w3.org/2000/svg"><path d="M881.2 891.6h-64.9V132.5h64.9c16.6 0 30 13.4 30 30v699.2c0 16.5-13.5 29.9-30 29.9z" fill="#2AD33E" /><path d="M841.9 891.6H142.7l-30-30V212.4l80-80h649.2l30 30v699.2c-11.8 11.7-18.3 18.3-30 30z" fill="#FFFFFF" /><path d="M829.4 162.4l12.4 12.4v674.3l-12.4 12.4H155.1l-12.4-12.4V224.8l62.4-62.4h624.3m12.5-30H192.7l-80 80v649.2l30 30h699.2l30-30V162.4c-11.8-11.7-18.3-18.3-30-30z" fill="#6D7677" /><path d="M708.7 351.2H361c-16.6 0-30-13.4-30-30V161.7c0-16.6 13.4-30 30-30h347.6c16.6 0 30 13.4 30 30v159.5c0.1 16.5-13.4 30-29.9 30z" fill="#D6D6D6" /><path d="M671.3 162.7v159.5H313.2V162.7h358.1m0-30H313.2c-16.6 0-30 13.4-30 30v159.5c0 16.6 13.4 30 30 30h358.1c16.6 0 30-13.4 30-30V162.7c0-16.6-13.4-30-30-30z" fill="#6D7677" /><path d="M415.8 305.9h-43.6c-11 0-20-9-20-20v-85.4c0-11 9-20 20-20h43.6c11 0 20 9 20 20v85.4c0 11.1-8.9 20-20 20z" fill="#FFFFFF" /><path d="M533.3 512.1m-118.3 0a118.3 118.3 0 1 0 236.6 0 118.3 118.3 0 1 0-236.6 0Z" fill="#D3D3D3" /><path d="M487.5 423.8c48.7 0 88.3 39.6 88.3 88.3 0 48.7-39.6 88.3-88.3 88.3-48.7 0-88.3-39.6-88.3-88.3 0-48.7 39.6-88.3 88.3-88.3m0-30c-65.3 0-118.3 53-118.3 118.3s53 118.3 118.3 118.3 118.3-53 118.3-118.3c0-65.4-52.9-118.3-118.3-118.3z" fill="#6D7677" /><path d="M775.4 828.9h-22.7c-11 0-20-9-20-20v-22.7c0-11 9-20 20-20h22.7c11 0 20 9 20 20v22.7c0 11.1-9 20-20 20z" fill="#FFFFFF" /><path d="M775.4 786.2v22.7h-22.7v-22.7h22.7m0-20h-22.7c-11 0-20 9-20 20v22.7c0 11 9 20 20 20h22.7c11 0 20-9 20-20v-22.7c0-11-9-20-20-20z" fill="#6D7677" /></svg>