<svg class="svg-icon" style="width: 1em; height: 1em;vertical-align: middle;fill: currentColor;overflow: hidden;" viewBox="0 0 1024 1024" version="1.1" xmlns="http://www.w3.org/2000/svg"><path d="M523.2 778.7c-164.6 0-289.4-6-332.4-8.4-9.4-0.5-16.9-7.9-17.5-17.3-2.5-37.5-8.1-141.5-8.1-329 0-136.1 6.1-269.9 8.4-315.9 0.5-9.5 8.1-17.1 17.6-17.6C238.3 88.2 378 82 518.6 82c152.8 0 274.4 5.9 317.2 8.3 9.5 0.5 17 8.1 17.5 17.6 2.4 43.9 8.4 185.3 8.4 334.6 0 205.3-6.3 260-8.5 309.9-0.4 9.6-8 17.2-17.5 17.8-42.9 2.6-163.7 8.5-312.5 8.5z" fill="#FFFFFF" /><path d="M518.5 112.2c140.7 0 254.4 5 305.3 7.7 3 59.6 7.8 190.4 7.8 322.9 0 164-4.1 232-6.8 277-0.5 7.6-0.9 14.6-1.2 21.3-50.7 2.7-163.5 7.7-300.5 7.7-151.7 0-268.9-5.1-320.7-7.8-2.6-43.1-7.4-144.6-7.4-316.9 0-125.4 5.2-248 7.9-304 58.3-2.7 186-7.9 315.6-7.9m0-30c-140.5 0-280.2 6.2-327.4 8.5-9.5 0.5-17.1 8-17.6 17.6-2.3 45.9-8.4 179.8-8.4 315.9 0 187.5 5.6 291.4 8.1 329 0.6 9.4 8.1 16.8 17.5 17.3 43 2.4 167.9 8.4 332.4 8.4 148.8 0 269.6-5.9 312.4-8.3 9.6-0.5 17.1-8.2 17.5-17.8 2.2-49.8 8.5-104.6 8.5-309.9 0-149.3-6-290.7-8.4-334.6-0.5-9.5-8-17.1-17.5-17.6-42.7-2.6-164.3-8.5-317.1-8.5z" fill="#6D7677" /><path d="M776.8 552.4H315c-16.6 0-30-13.4-30-30V208.7c0-16.6 13.4-30 30-30h461.8c16.6 0 30 13.4 30 30v313.6c0 16.6-13.4 30.1-30 30.1z" fill="#ADADAD" /><path d="M749.3 567.4H287.6c-24.8 0-45-20.2-45-45V208.7c0-24.8 20.2-45 45-45h461.8c24.8 0 45 20.2 45 45v313.6c-0.1 24.9-20.3 45.1-45.1 45.1zM287.6 193.7c-8.3 0-15 6.7-15 15v313.6c0 8.3 6.7 15 15 15h461.8c8.3 0 15-6.7 15-15V208.7c0-8.3-6.7-15-15-15H287.6z" fill="#6D7677" /><path d="M631.9 608.1H414.2c-6.1 0-11-4.9-11-11V544h239.7v53.1c0 6.1-5 11-11 11z m-208.7-20h199.7V564H423.2v24.1z" fill="#6D7677" /><path d="M379 698.8h-54.9c-17.6 0-32-14.4-32-32s14.4-32 32-32H379c17.6 0 32 14.4 32 32s-14.4 32-32 32z" fill="#24D1FF" /><path d="M342.4 654.8c6.5 0 12 5.5 12 12s-5.5 12-12 12h-54.9c-6.5 0-12-5.5-12-12s5.5-12 12-12h54.9m0-20h-54.9c-17.6 0-32 14.4-32 32s14.4 32 32 32h54.9c17.6 0 32-14.4 32-32s-14.4-32-32-32z" fill="#6D7677" /><path d="M784.8 698.8h-54.9c-17.6 0-32-14.4-32-32s14.4-32 32-32h54.9c17.6 0 32 14.4 32 32s-14.4 32-32 32z" fill="#24D1FF" /><path d="M748.1 654.8c6.5 0 12 5.5 12 12s-5.5 12-12 12h-54.9c-6.5 0-12-5.5-12-12s5.5-12 12-12h54.9m0-20h-54.9c-17.6 0-32 14.4-32 32s14.4 32 32 32h54.9c17.6 0 32-14.4 32-32 0.1-17.6-14.3-32-32-32z" fill="#6D7677" /><path d="M703.6 927.7H104.5c-16.5 0-30-13.5-30-30v-33.2c0-5.5 4.5-10 10-10h639.1c5.5 0 10 4.5 10 10v33.2c0 16.5-13.5 30-30 30z" fill="#FFFFFF" /><path d="M713.6 874.4v23.2c0 5.4-4.6 10-10 10H104.5c-5.4 0-10-4.6-10-10v-23.2h619.1m10-20H84.5c-5.5 0-10 4.5-10 10v33.2c0 16.5 13.5 30 30 30h599.1c16.5 0 30-13.5 30-30v-33.2c0-5.5-4.5-10-10-10z" fill="#6D7677" /><path d="M925.8 929.7H797.6c-20.1 0-36.6-16.5-36.6-36.6 0-41.4 31-76.3 72.1-80.9 8.6-1 18.1-1.5 28.5-1.5 11.4 0 21.9 0.9 31.5 2.3 39.7 5.9 69.2 39.9 69.2 80.1 0.1 20.1-16.4 36.6-36.5 36.6z" fill="#FFFFFF" /><path d="M861.7 830.7c9.7 0 19.3 0.7 28.6 2.1 14.5 2.2 27.7 9.4 37.3 20.5 9.6 11.1 14.8 25.2 14.8 39.8 0 9.2-7.5 16.6-16.6 16.6H797.6c-9.2 0-16.6-7.5-16.6-16.6 0-31.3 23.4-57.6 54.3-61 8.4-1 17.3-1.4 26.4-1.4m0-20c-10.4 0-19.9 0.6-28.5 1.5-41.1 4.6-72.1 39.5-72.1 80.9 0 20.1 16.5 36.6 36.6 36.6h128.2c20.1 0 36.6-16.5 36.6-36.6 0-40.2-29.4-74.2-69.2-80.1-9.7-1.5-20.2-2.3-31.6-2.3z" fill="#6D7677" /><path d="M145.8 854.4H118c-3.1 0-5-3.6-3.7-6.6l4.1-9.2c0.7-1.6 2.1-2.5 3.7-2.5h19.6c1.6 0 3 1 3.7 2.5l4.1 9.2c1.3 3.1-0.7 6.6-3.7 6.6zM195 854.4h-27.8c-3.1 0-5-3.6-3.7-6.6l4.1-9.2c0.7-1.6 2.1-2.5 3.7-2.5h19.6c1.6 0 3 1 3.7 2.5l4.1 9.2c1.4 3.1-0.6 6.6-3.7 6.6zM244.3 854.4h-27.8c-3.1 0-5-3.6-3.7-6.6l4.1-9.2c0.7-1.6 2.1-2.5 3.7-2.5h19.6c1.6 0 3 1 3.7 2.5l4.1 9.2c1.3 3.1-0.7 6.6-3.7 6.6zM447.9 854.4h-27.8c-3.1 0-5-3.6-3.7-6.6l4.1-9.2c0.7-1.6 2.1-2.5 3.7-2.5h19.6c1.6 0 3 1 3.7 2.5l4.1 9.2c1.3 3.1-0.7 6.6-3.7 6.6zM497.1 854.4h-27.8c-3.1 0-5-3.6-3.7-6.6l4.1-9.2c0.7-1.6 2.1-2.5 3.7-2.5H493c1.6 0 3 1 3.7 2.5l4.1 9.2c1.4 3.1-0.6 6.6-3.7 6.6zM546.4 854.4h-27.8c-3.1 0-5-3.6-3.7-6.6l4.1-9.2c0.7-1.6 2.1-2.5 3.7-2.5h19.6c1.6 0 3 1 3.7 2.5l4.1 9.2c1.3 3.1-0.7 6.6-3.7 6.6zM597.8 854.4H570c-3.1 0-5-3.6-3.7-6.6l4.1-9.2c0.7-1.6 2.1-2.5 3.7-2.5h19.6c1.6 0 3 1 3.7 2.5l4.1 9.2c1.3 3.1-0.6 6.6-3.7 6.6z" fill="#344344" /><path d="M647.1 854.4h-27.8c-3.1 0-5-3.6-3.7-6.6l4.1-9.2c0.7-1.6 2.1-2.5 3.7-2.5H643c1.6 0 3 1 3.7 2.5l4.1 9.2c1.3 3.1-0.7 6.6-3.7 6.6z" fill="#344344" /><path d="M692.8 854.4H665c-3.1 0-5-3.6-3.7-6.6l4.1-9.2c0.7-1.6 2.1-2.5 3.7-2.5h19.6c1.6 0 3 1 3.7 2.5l4.1 9.2c1.4 3.1-0.6 6.6-3.7 6.6z" fill="#344344" /><path d="M396.6 854.4H265c-3.4 0-5.6-3.6-4.1-6.6l4.6-9.2c0.8-1.6 2.4-2.5 4.1-2.5H392c1.7 0 3.3 1 4.1 2.5l4.6 9.2c1.5 3.1-0.7 6.6-4.1 6.6z" fill="#344344" /></svg>