<svg class="svg-icon" style="width: 1em; height: 1em;vertical-align: middle;fill: currentColor;overflow: hidden;" viewBox="0 0 1024 1024" version="1.1" xmlns="http://www.w3.org/2000/svg"><path d="M935.2 804.9h-845c-16.5 0-30-13.5-30-30V245.8c0-16.5 13.5-30 30-30h845v589.1z" fill="#C6C6C6" /><path d="M966.5 245.8s0.1 0.1 0 0l0.1 529-0.1 0.1H117.7l-0.1-0.1v-529l0.1-0.1h848.8m0.1-29.9H117.7c-16.5 0-30 13.5-30 30v529.1c0 16.5 13.5 30 30 30h848.9c16.5 0 30-13.5 30-30V245.8c0-16.5-13.5-30-30-30z" fill="#6D7677" /><path d="M850.9 534H160.1c-9.1 0-16.5-7.3-16.4-16.2l0.4-186.4c0-8.9 7.4-16.2 16.4-16.2h690.1c9.1 0 16.4 7.2 16.4 16.2l0.4 186.4c0 8.9-7.4 16.2-16.5 16.2z" fill="#B3EF54" /><path d="M882 336.8l0.3 175.6H201.9l0.3-175.6H882m13.2-30h-706c-9.3 0-16.8 7.8-16.8 17.4l-0.4 200.7c0 9.7 7.5 17.5 16.8 17.5h706.8c9.3 0 16.8-7.8 16.8-17.5l-0.4-200.7c0-9.6-7.6-17.4-16.8-17.4zM314.9 671.8h-75.7c-24.1 0-43.7-19.6-43.7-43.7s19.6-43.7 43.7-43.7h75.7c24.1 0 43.7 19.6 43.7 43.7s-19.6 43.7-43.7 43.7z m-75.7-67.3c-13 0-23.7 10.6-23.7 23.7s10.6 23.7 23.7 23.7h75.7c13 0 23.7-10.6 23.7-23.7s-10.6-23.7-23.7-23.7h-75.7z" fill="#6D7677" /><path d="M298.1 636.6H256c-4.6 0-8.4-3.8-8.4-8.4 0-4.6 3.8-8.4 8.4-8.4h42.1c4.6 0 8.4 3.8 8.4 8.4 0 4.6-3.8 8.4-8.4 8.4z" fill="#37F449" /><path d="M500.1 671.8h-75.7c-24.1 0-43.7-19.6-43.7-43.7s19.6-43.7 43.7-43.7h75.7c24.1 0 43.7 19.6 43.7 43.7s-19.7 43.7-43.7 43.7z m-75.8-67.3c-13 0-23.7 10.6-23.7 23.7s10.6 23.7 23.7 23.7H500c13 0 23.7-10.6 23.7-23.7s-10.6-23.7-23.7-23.7h-75.7z" fill="#6D7677" /><path d="M814.8 751.2H646.5c-50.9 0-92.6-41.7-92.6-92.6 0-50.9 41.7-92.6 92.6-92.6h168.3c50.9 0 92.6 41.7 92.6 92.6 0 51-41.6 92.6-92.6 92.6z" fill="#AFAFAF" /><path d="M853.5 757.8H668.4c-54.7 0-99.2-44.5-99.2-99.2s44.5-99.2 99.2-99.2h185.1c54.7 0 99.2 44.5 99.2 99.2s-44.5 99.2-99.2 99.2zM668.4 589.5c-38.1 0-69.2 31-69.2 69.2s31 69.2 69.2 69.2h185.1c38.1 0 69.2-31 69.2-69.2s-31-69.2-69.2-69.2H668.4z" fill="#6D7677" /><path d="M483.2 636.6h-42.1c-4.6 0-8.4-3.8-8.4-8.4 0-4.6 3.8-8.4 8.4-8.4h42.1c4.6 0 8.4 3.8 8.4 8.4 0 4.6-3.7 8.4-8.4 8.4z" fill="#FF2449" /><path d="M740.1 629l25.2-25.2 25.3 25.2zM791.9 689.7l-26.6 26.6-26.5-26.6zM657.2 686.7l-25.8-25.8 25.8-25.9zM873.3 634.8l26 26.1-26 26z" fill="#FFFFFF" /><path d="M236.8 746.6h-11.4l6.5-21.4-13 21.4h-9.6l-0.5-21.3-5.8 21.3h-11.6l9-30.9h17l-0.1 19.9 11.3-19.9h17l-8.8 30.9zM281.5 740.9c-1.6 1.6-3.4 2.8-5.2 3.8-3.4 1.7-8.1 2.7-13 2.7-11.5 0-18.2-5-18.2-13.7 0-4.7 2.4-9.7 6.4-13.3 4.1-3.6 10.2-5.7 17.3-5.7 10.9 0 18.3 5.1 18.3 13v0.4c-0.1 4.8-2 9.4-5.6 12.8z m-13.9-18.7c-2.4 0-4 0.4-5.8 1.8-2.6 2.1-4.4 6.1-4.4 9.8 0 3.9 2.7 6.3 7 6.3 5.8 0 10.3-5.2 10.3-11.8 0.1-3.8-2.6-6.1-7.1-6.1zM321.6 722.5h-9.5l-6.9 24.1H293l6.9-24.1h-10.2l2.1-6.8h31.9l-2.1 6.8zM356.4 740.9c-1.6 1.6-3.3 2.8-5.2 3.8-3.4 1.7-8.1 2.7-13 2.7-11.5 0-18.2-5-18.2-13.7 0-4.7 2.4-9.7 6.4-13.3 4.1-3.6 10.2-5.7 17.3-5.7 10.9 0 18.3 5.1 18.3 13v0.4c-0.1 4.8-2 9.4-5.6 12.8z m-13.9-18.7c-2.4 0-4 0.4-5.8 1.8-2.6 2.1-4.4 6.1-4.4 9.8 0 3.9 2.7 6.3 7 6.3 5.8 0 10.3-5.2 10.3-11.8 0-3.8-2.6-6.1-7.1-6.1zM399.1 730.8c-1.6 1.6-3.1 2.4-6.9 3.4l6.9 12.3H386l-5.1-11.1h-4.4l-3.2 11.1h-12l8.8-30.9h15.3c4.3 0 6 0.1 7.9 0.4 5.1 0.7 8.3 4.1 8.3 8.6 0 2.3-0.9 4.6-2.5 6.2z m-14.8-8.6h-4l-2 7h4.5c2.3 0 3.7-0.2 4.7-0.6 1.5-0.6 2.4-1.8 2.4-3.3 0.1-2.2-1.6-3.1-5.6-3.1zM440.9 740.9c-1.6 1.6-3.3 2.8-5.2 3.8-3.4 1.7-8.1 2.7-13 2.7-11.5 0-18.2-5-18.2-13.7 0-4.7 2.4-9.7 6.4-13.3 4.1-3.6 10.2-5.7 17.3-5.7 10.9 0 18.3 5.1 18.3 13v0.4c-0.1 4.8-2 9.4-5.6 12.8zM427 722.2c-2.4 0-4 0.4-5.8 1.8-2.6 2.1-4.4 6.1-4.4 9.8 0 3.9 2.7 6.3 7 6.3 5.8 0 10.3-5.2 10.3-11.8 0.1-3.8-2.6-6.1-7.1-6.1zM471.9 746.6H446l8.8-30.9H467l-6.9 24.1h13.7l-1.9 6.8zM501.7 746.6l-0.1-4.5h-11.4l-3.3 4.5H473l23.5-30.9h13.6l4.2 30.9h-12.6z m-0.6-21.9l-6.9 10.7h7.1l-0.2-10.7z" fill="#494949" /></svg>