<svg class="svg-icon" style="width: 1em; height: 1em;vertical-align: middle;fill: currentColor;overflow: hidden;" viewBox="0 0 1024 1024" version="1.1" xmlns="http://www.w3.org/2000/svg"><path d="M870.4 832.6H87.5c-16.6 0-30-13.4-30-30v-583c0-16.6 13.4-30 30-30h782.9c16.6 0 30 13.4 30 30v583c0 16.6-13.5 30-30 30z" fill="#FFA83B" /><path d="M918.1 219.6v583H135.2v-583h782.9m0-30H135.2c-16.6 0-30 13.4-30 30v583c0 16.6 13.4 30 30 30h782.9c16.6 0 30-13.4 30-30v-583c0-16.6-13.5-30-30-30z" fill="#6D7677" /><path d="M183 262.9h683.7v504.7H183z" fill="#FFFFFF" /><path d="M881.7 782.5H168V247.9h713.7v534.6z m-683.7-30h653.7V277.9H198v474.6z" fill="#6D7677" /><path d="M505.2 512.2m-287.9 0a287.9 287.9 0 1 0 575.8 0 287.9 287.9 0 1 0-575.8 0Z" fill="#242528" /><path d="M512.6 512.2m-96 0a96 96 0 1 0 192 0 96 96 0 1 0-192 0Z" fill="#485AE0" /><path d="M769 271.9m-40.7 0a40.7 40.7 0 1 0 81.4 0 40.7 40.7 0 1 0-81.4 0Z" fill="#B7B7B7" /><path d="M769 322.6c-28 0-50.7-22.7-50.7-50.7s22.7-50.7 50.7-50.7c28 0 50.7 22.7 50.7 50.7S797 322.6 769 322.6z m0-81.4c-16.9 0-30.7 13.8-30.7 30.7s13.8 30.7 30.7 30.7 30.7-13.8 30.7-30.7-13.8-30.7-30.7-30.7z" fill="#6D7677" /><path d="M781.2 706.5m-20.3 0a20.3 20.3 0 1 0 40.6 0 20.3 20.3 0 1 0-40.6 0Z" fill="#B7B7B7" /><path d="M781.2 736.8c-16.7 0-30.3-13.6-30.3-30.3s13.6-30.3 30.3-30.3 30.3 13.6 30.3 30.3-13.6 30.3-30.3 30.3z m0-40.7c-5.7 0-10.3 4.6-10.3 10.3 0 5.7 4.6 10.3 10.3 10.3s10.3-4.6 10.3-10.3c0.1-5.6-4.6-10.3-10.3-10.3z" fill="#6D7677" /><path d="M223.6 704h48.8v22.8h-48.8z" fill="#232323" /><path d="M826 319.8h130.2v73.3H826z" fill="#FFFFFF" /><path d="M971.2 408.1H811V304.8h160.2v103.3z m-130.2-30h100.2v-43.3H841v43.3z" fill="#6D7677" /><path d="M744.6 522.1h-40.7c-8.3 0-15-6.7-15-15s6.7-15 15-15h30.7l61.3-145.5c2.3-5.6 7.8-9.2 13.8-9.2h57c8.3 0 15 6.7 15 15s-6.7 15-15 15h-47l-61.3 145.5c-2.3 5.5-7.8 9.2-13.8 9.2z" fill="#4D4D4D" /><path d="M696.9 531.5h-32.8c-4.4 0-8-3.6-8-8v-32.8c0-4.4 3.6-8 8-8h32.8c4.4 0 8 3.6 8 8v32.8c0 4.4-3.6 8-8 8z" fill="#6D7677" /><path d="M651.3 486.4v41.4h-17v-41.4h17m0-20h-17c-11 0-20 9-20 20v41.4c0 11 9 20 20 20h17c11 0 20-9 20-20v-41.4c0-11.1-8.9-20-20-20z" fill="#6D7677" /></svg>