<svg class="svg-icon" style="width: 1em; height: 1em;vertical-align: middle;fill: currentColor;overflow: hidden;" viewBox="0 0 1024 1024" version="1.1" xmlns="http://www.w3.org/2000/svg"><path d="M279 928.9h-28.3c-16.5 0-30-13.5-30-30V581.6c0-16.5 13.5-30 30-30H279c16.5 0 30 13.5 30 30v317.3c0 16.5-13.5 30-30 30z" fill="#93C2CE" /><path d="M760.7 581.6l0.1 317.3-0.1 0.1H282.9l-0.1-0.1V581.7l0.1-0.1h477.8m0-30H282.8c-16.5 0-30 13.5-30 30v317.3c0 16.5 13.5 30 30 30h477.9c16.5 0 30-13.5 30-30V581.6c0-16.5-13.5-30-30-30z" fill="#6D7677" /><path d="M680.4 696c0 0.1 0 0.1 0 0l0.1 136.6-0.1 0.1H395.3l-0.1-0.1V696.1l0.1-0.1h285.1m0-30H395.2c-16.5 0-30 13.5-30 30v136.6c0 16.5 13.5 30 30 30h285.2c16.5 0 30-13.5 30-30V696c0-16.5-13.5-30-30-30z" fill="#6D7677" /><path d="M674 444.9l-72.7 120c-3.5 6.1-0.2 14.7 7.5 19.2l34.8 20.1c7.6 4.4 16.8 3 20.3-3.1l82-136.2" fill="#FFFFFF" /><path d="M652.9 621.7c-5.8 0-11.6-1.6-16.8-4.6L601.3 597c-14.8-8.6-20.6-26.3-13-39.6l0.2-0.3 72.7-120 25.7 15.5-71.3 117.8c0.2 0.2 0.5 0.4 0.8 0.6l34.8 20.1c0.4 0.2 0.7 0.4 1 0.4l81-134.4 25.7 15.5-82 136.1c-4 6.8-11 11.4-19.3 12.7-1.6 0.2-3.2 0.3-4.7 0.3z" fill="#6D7677" /><path d="M362.4 445.2l74.2 122.6c3.6 6.3 0.3 15-7.3 19.4l-34.8 20.1c-7.6 4.4-16.9 2.9-20.5-3.3l-83.7-139.1" fill="#FFFFFF" /><path d="M385.3 624.8c-9.9 0-19.3-4.7-24.3-13.2l-83.7-139 25.7-15.5 82.8 137.6c0.3-0.1 0.6-0.2 1-0.4l34.8-20.1c0.3-0.2 0.6-0.4 0.8-0.6l-73-120.7 25.7-15.5 74.3 122.9c4 6.9 4.6 15.3 1.6 23.2-2.6 6.9-7.7 12.8-14.4 16.7l-34.8 20.1c-5.2 3.1-10.9 4.5-16.5 4.5z" fill="#6D7677" /><path d="M710.4 286.6m-184.7 0a184.7 184.7 0 1 0 369.4 0 184.7 184.7 0 1 0-369.4 0Z" fill="#A0AFAE" /><path d="M602.1 397c-2.9 0-5.8-1.3-7.8-3.8L401.6 152.4c-3.5-4.3-2.8-10.6 1.6-14.1 4.3-3.5 10.6-2.8 14.1 1.6L610 380.8c3.5 4.3 2.8 10.6-1.6 14.1-1.9 1.4-4.1 2.1-6.3 2.1z" fill="#74D6D6" /><path d="M268.9 286.6m-184.7 0a184.7 184.7 0 1 0 369.4 0 184.7 184.7 0 1 0-369.4 0Z" fill="#A0AFAE" /><path d="M301 132c41.3 0 80.1 16.1 109.4 45.3s45.3 68 45.3 109.4-16.1 80.1-45.3 109.4-68 45.3-109.4 45.3-80.1-16.1-109.4-45.3-45.3-68-45.3-109.4 16.1-80.1 45.3-109.4S259.7 132 301 132m0-30c-102 0-184.7 82.7-184.7 184.7S199 471.3 301 471.3s184.7-82.7 184.7-184.7S403 102 301 102zM742.6 132c41.3 0 80.1 16.1 109.4 45.3 29.2 29.2 45.3 68 45.3 109.4s-16.1 80.1-45.3 109.4c-29.2 29.2-68 45.3-109.4 45.3s-80.1-16.1-109.4-45.3c-29.2-29.2-45.3-68-45.3-109.4s16.1-80.1 45.3-109.4c29.2-29.2 68.1-45.3 109.4-45.3m0-30c-102 0-184.7 82.7-184.7 184.7s82.7 184.7 184.7 184.7c102 0 184.7-82.7 184.7-184.7S844.5 102 742.6 102zM929.3 682.2v132.2l-92.5-21.6v-88.9l92.5-21.7m14.8-34.3L806.8 680v136.5l137.3 32.1c8.4 0 15.3-7.2 15.3-16.1V664c-0.1-8.8-6.9-16.1-15.3-16.1zM146.2 621.7l26.3 8.2v58.2l-26.3 8.2v-74.6M128 585.3c-6.1 0-11.7 4.3-11.8 10.3v126.9c0.1 6 5.7 10.3 11.8 10.3 1.3 0 2.5-0.2 3.8-0.6l70.7-21.9V607.8l-70.7-21.9c-1.3-0.4-2.5-0.6-3.8-0.6z" fill="#6D7677" /><path d="M750.2 215.4l-5.3 0.4c-18.8 1.4-35.2-12.8-36.6-31.6l-0.4-5.3c-1.4-18.8 12.8-35.2 31.6-36.6l5.3-0.4c18.8-1.4 35.2 12.8 36.6 31.6l0.4 5.3c1.4 18.7-12.9 35.2-31.6 36.6z" fill="#FFFFFF" /><path d="M747.3 141.8v14c10.5 0 19.4 8.2 20.1 18.7l0.4 5.3c0.4 5.3-1.3 10.5-4.9 14.6s-8.4 6.6-13.8 7l-5.3 0.4c-0.5 0-1 0.1-1.5 0.1-10.5 0-19.4-8.2-20.1-18.7l-0.4-5.3c-0.4-5.3 1.3-10.5 4.9-14.6s8.4-6.6 13.8-7l5.3-0.4c0.5 0 1-0.1 1.5-0.1v-14m0 0c-0.8 0-1.7 0-2.5 0.1l-5.3 0.4c-18.8 1.4-33 17.9-31.6 36.6l0.4 5.3c1.3 17.9 16.4 31.7 34.1 31.7 0.8 0 1.7 0 2.5-0.1l5.3-0.4c18.8-1.4 33-17.9 31.6-36.6l-0.4-5.3c-1.3-17.9-16.4-31.7-34.1-31.7z" fill="#6D7677" /><path d="M846.6 298.6l-5.3 0.4c-18.8 1.4-35.2-12.8-36.6-31.6l-0.4-5.3c-1.4-18.8 12.8-35.2 31.6-36.6l5.3-0.4c18.8-1.4 35.2 12.8 36.6 31.6l0.4 5.3c1.4 18.7-12.9 35.2-31.6 36.6z" fill="#FFFFFF" /><path d="M843.7 225v14c10.5 0 19.4 8.2 20.1 18.7l0.4 5.3c0.8 11.1-7.6 20.8-18.7 21.6l-5.3 0.4c-0.5 0-1 0.1-1.5 0.1-10.5 0-19.4-8.2-20.1-18.7l-0.4-5.3c-0.8-11.1 7.6-20.8 18.7-21.6l5.3-0.4c0.5 0 1-0.1 1.5-0.1v-14m0 0c-0.8 0-1.7 0-2.5 0.1l-5.3 0.4c-18.8 1.4-33 17.9-31.6 36.6l0.4 5.3c1.3 17.9 16.4 31.7 34.1 31.7 0.8 0 1.7 0 2.5-0.1l5.3-0.4c18.8-1.4 33-17.9 31.6-36.6l-0.4-5.3c-1.3-17.9-16.4-31.7-34.1-31.7z" fill="#6D7677" /><path d="M814.2 415.9l-5.3 0.4c-18.8 1.4-35.2-12.8-36.6-31.6l-0.4-5.3c-1.4-18.8 12.8-35.2 31.6-36.6l5.3-0.4c18.8-1.4 35.2 12.8 36.6 31.6l0.4 5.3c1.3 18.7-12.9 35.2-31.6 36.6z" fill="#FFFFFF" /><path d="M811.3 342.3v14c10.5 0 19.4 8.2 20.1 18.7l0.4 5.3c0.4 5.3-1.3 10.5-4.9 14.6-3.5 4.1-8.4 6.6-13.8 7l-5.3 0.4c-0.5 0-1 0.1-1.5 0.1-10.5 0-19.4-8.2-20.1-18.7l-0.4-5.3c-0.4-5.3 1.3-10.5 4.9-14.6 3.5-4.1 8.4-6.6 13.8-7l5.3-0.4c0.5 0 1-0.1 1.5-0.1v-14m0 0c-0.8 0-1.7 0-2.5 0.1l-5.3 0.4c-18.8 1.4-33 17.9-31.6 36.6l0.4 5.3c1.3 17.9 16.4 31.7 34.1 31.7 0.8 0 1.7 0 2.5-0.1l5.3-0.4c18.8-1.4 33-17.9 31.6-36.6l-0.4-5.3c-1.3-17.9-16.4-31.7-34.1-31.7z" fill="#6D7677" /><path d="M682.9 417.3l-5.3 0.4c-18.8 1.4-35.2-12.8-36.6-31.6l-0.4-5.3c-1.4-18.8 12.8-35.2 31.6-36.6l5.3-0.4c18.8-1.4 35.2 12.8 36.6 31.6l0.4 5.3c1.4 18.8-12.8 35.2-31.6 36.6z" fill="#FFFFFF" /><path d="M680 343.7v14c10.5 0 19.4 8.2 20.1 18.7l0.4 5.3c0.4 5.3-1.3 10.5-4.9 14.6-3.5 4.1-8.4 6.6-13.8 7l-5.3 0.4c-0.5 0-1 0.1-1.5 0.1-10.5 0-19.4-8.2-20.1-18.7l-0.4-5.3c-0.4-5.3 1.3-10.5 4.9-14.6 3.5-4.1 8.4-6.6 13.8-7l5.3-0.4c0.5 0 1-0.1 1.5-0.1v-14m0 0c-0.8 0-1.7 0-2.5 0.1l-5.3 0.4c-18.8 1.4-33 17.9-31.6 36.6l0.4 5.3c1.3 17.9 16.4 31.7 34.1 31.7 0.8 0 1.7 0 2.5-0.1l5.3-0.4c18.8-1.4 33-17.9 31.6-36.6l-0.4-5.3c-1.3-17.9-16.4-31.7-34.1-31.7z" fill="#6D7677" /><path d="M649.4 296.6l-5.3 0.4c-18.8 1.4-35.2-12.8-36.6-31.6l-0.4-5.3c-1.4-18.8 12.8-35.2 31.6-36.6l5.3-0.4c18.8-1.4 35.2 12.8 36.6 31.6l0.4 5.3c1.4 18.8-12.8 35.3-31.6 36.6z" fill="#FFFFFF" /><path d="M646.6 223.1v14c10.5 0 19.4 8.2 20.1 18.7l0.4 5.3c0.4 5.3-1.3 10.5-4.9 14.6s-8.4 6.6-13.8 7l-5.3 0.4c-0.5 0-1 0.1-1.5 0.1-10.5 0-19.4-8.2-20.1-18.7l-0.4-5.3c-0.4-5.3 1.3-10.5 4.9-14.6s8.4-6.6 13.8-7l5.3-0.4c0.5 0 1-0.1 1.5-0.1v-14m0 0c-0.8 0-1.7 0-2.5 0.1l-5.3 0.4c-18.8 1.4-33 17.9-31.6 36.6l0.4 5.3c1.3 17.9 16.4 31.7 34.1 31.7 0.8 0 1.7 0 2.5-0.1l5.3-0.4c18.8-1.4 33-17.9 31.6-36.6l-0.4-5.3c-1.4-17.9-16.4-31.7-34.1-31.7z" fill="#6D7677" /><path d="M308.6 215.4l-5.3 0.4c-18.8 1.4-35.2-12.8-36.6-31.6l-0.4-5.3c-1.4-18.8 12.8-35.2 31.6-36.6l5.3-0.4c18.8-1.4 35.2 12.8 36.6 31.6l0.4 5.3c1.4 18.7-12.8 35.2-31.6 36.6z" fill="#FFFFFF" /><path d="M305.7 141.8v14c10.5 0 19.4 8.2 20.1 18.7l0.4 5.3c0.4 5.3-1.3 10.5-4.9 14.6-3.5 4.1-8.4 6.6-13.8 7l-5.3 0.4c-0.5 0-1 0.1-1.5 0.1-10.5 0-19.4-8.2-20.1-18.7l-0.4-5.3c-0.8-11.1 7.6-20.8 18.7-21.6l5.3-0.4c0.5 0 1-0.1 1.5-0.1v-14m0 0c-0.8 0-1.7 0-2.5 0.1l-5.3 0.4c-18.8 1.4-33 17.9-31.6 36.6l0.4 5.3c1.3 17.9 16.4 31.7 34.1 31.7 0.8 0 1.7 0 2.5-0.1l5.3-0.4c18.8-1.4 33-17.9 31.6-36.6l-0.4-5.3c-1.3-17.9-16.4-31.7-34.1-31.7z" fill="#6D7677" /><path d="M405 298.6l-5.3 0.4c-18.8 1.4-35.2-12.8-36.6-31.6l-0.4-5.3c-1.4-18.8 12.8-35.2 31.6-36.6l5.3-0.4c18.8-1.4 35.2 12.8 36.6 31.6l0.4 5.3c1.4 18.7-12.8 35.2-31.6 36.6z" fill="#FFFFFF" /><path d="M402.1 225v14c10.5 0 19.4 8.2 20.1 18.7l0.4 5.3c0.8 11.1-7.6 20.8-18.7 21.6l-5.3 0.4c-0.5 0-1 0.1-1.5 0.1-10.5 0-19.4-8.2-20.1-18.7l-0.4-5.3c-0.4-5.3 1.3-10.5 4.9-14.6s8.4-6.6 13.8-7l5.3-0.4c0.5 0 1-0.1 1.5-0.1v-14m0 0c-0.8 0-1.7 0-2.5 0.1l-5.3 0.4c-18.8 1.4-33 17.9-31.6 36.6l0.4 5.3c1.3 17.9 16.4 31.7 34.1 31.7 0.8 0 1.7 0 2.5-0.1l5.3-0.4c18.8-1.4 33-17.9 31.6-36.6l-0.4-5.3c-1.3-17.9-16.4-31.7-34.1-31.7z" fill="#6D7677" /><path d="M372.6 415.9l-5.3 0.4c-18.8 1.4-35.2-12.8-36.6-31.6l-0.4-5.3c-1.4-18.8 12.8-35.2 31.6-36.6l5.3-0.4c18.8-1.4 35.2 12.8 36.6 31.6l0.4 5.3c1.4 18.7-12.9 35.2-31.6 36.6z" fill="#FFFFFF" /><path d="M369.7 342.3v14c10.5 0 19.4 8.2 20.1 18.7l0.4 5.3c0.8 11.1-7.6 20.8-18.7 21.6l-5.3 0.4c-0.5 0-1 0.1-1.5 0.1-10.5 0-19.4-8.2-20.1-18.7l-0.4-5.3c-0.4-5.3 1.3-10.5 4.9-14.6 3.5-4.1 8.4-6.6 13.8-7l5.3-0.4c0.5 0 1-0.1 1.5-0.1v-14m0 0c-0.8 0-1.7 0-2.5 0.1l-5.3 0.4c-18.8 1.4-33 17.9-31.6 36.6l0.4 5.3c1.3 17.9 16.4 31.7 34.1 31.7 0.8 0 1.7 0 2.5-0.1l5.3-0.4c18.8-1.4 33-17.9 31.6-36.6l-0.4-5.3c-1.3-17.9-16.4-31.7-34.1-31.7z" fill="#6D7677" /><path d="M241.4 417.3l-5.3 0.4c-18.8 1.4-35.2-12.8-36.6-31.6l-0.4-5.3c-1.4-18.8 12.8-35.2 31.6-36.6l5.3-0.4c18.8-1.4 35.2 12.8 36.6 31.6l0.4 5.3c1.3 18.8-12.9 35.2-31.6 36.6z" fill="#FFFFFF" /><path d="M238.5 343.7v14c10.5 0 19.4 8.2 20.1 18.7l0.4 5.3c0.4 5.3-1.3 10.5-4.9 14.6-3.5 4.1-8.4 6.6-13.8 7l-5.3 0.4c-0.5 0-1 0.1-1.5 0.1-10.5 0-19.4-8.2-20.1-18.7l-0.4-5.3c-0.8-11.1 7.6-20.8 18.7-21.6l5.3-0.4c0.5 0 1-0.1 1.5-0.1v-14m0 0c-0.8 0-1.7 0-2.5 0.1l-5.3 0.4c-18.8 1.4-33 17.9-31.6 36.6l0.4 5.3c1.3 17.9 16.4 31.7 34.1 31.7 0.8 0 1.7 0 2.5-0.1l5.3-0.4c18.8-1.4 33-17.9 31.6-36.6l-0.4-5.3c-1.3-17.9-16.4-31.7-34.1-31.7z" fill="#6D7677" /><path d="M207.9 296.6l-5.3 0.4c-18.8 1.4-35.2-12.8-36.6-31.6l-0.4-5.3c-1.4-18.8 12.8-35.2 31.6-36.6l5.3-0.4c18.8-1.4 35.2 12.8 36.6 31.6l0.4 5.3c1.3 18.8-12.9 35.3-31.6 36.6z" fill="#FFFFFF" /><path d="M205 223.1v14c10.5 0 19.4 8.2 20.1 18.7l0.4 5.3c0.8 11.1-7.6 20.8-18.7 21.6l-5.3 0.4c-0.5 0-1 0.1-1.5 0.1-10.5 0-19.4-8.2-20.1-18.7l-0.4-5.3c-0.8-11.1 7.6-20.8 18.7-21.6l5.3-0.4c0.5 0 1-0.1 1.5-0.1v-14m0 0c-0.8 0-1.7 0-2.5 0.1l-5.3 0.4c-18.8 1.4-33 17.9-31.6 36.6l0.4 5.3c1.3 17.9 16.4 31.7 34.1 31.7 0.8 0 1.7 0 2.5-0.1l5.3-0.4c18.8-1.4 33-17.9 31.6-36.6l-0.4-5.3c-1.3-17.9-16.4-31.7-34.1-31.7z" fill="#6D7677" /><path d="M606.1 729.7c13.3 0 24.2 10.8 24.2 24.2 0 13.3-10.8 24.2-24.2 24.2-13.3 0-24.2-10.8-24.2-24.2 0.1-13.3 10.9-24.2 24.2-24.2m0-20c-24.4 0-44.2 19.8-44.2 44.2 0 24.4 19.8 44.2 44.2 44.2 24.4 0 44.2-19.8 44.2-44.2 0-24.4-19.8-44.2-44.2-44.2z" fill="#6D7677" /></svg>