<svg class="svg-icon" style="width: 1em; height: 1em;vertical-align: middle;fill: currentColor;overflow: hidden;" viewBox="0 0 1024 1024" version="1.1" xmlns="http://www.w3.org/2000/svg"><path d="M890.7 237.4c30.8 5.8 65.6 18.8 65.6 48.9v437.2c0 34.6-29.5 54.8-65.6 54.8V237.4z" fill="#C87B00" /><path d="M759.6 466.9m-147.5 0a147.5 147.5 0 1 0 295 0 147.5 147.5 0 1 0-295 0Z" fill="#FFD70D" /><path d="M497.3 218.2c167.7 0 312.6 22.4 384.1 35.8 16.5 3.1 28.5 16.7 28.5 32.3v437.2c0 8.5-3.6 16.6-10 22.8-6.8 6.5-15.9 10.1-25.5 10.1H120.3c-19.6 0-35.6-14.8-35.6-33V287.2c0-15.8 12.1-29.4 28.8-32.4 77.8-13.6 231.1-36.6 383.8-36.6m0-30c-155 0-309.9 23.2-388.9 37.1-31.1 5.5-53.6 31.6-53.6 61.9v436.3c0 34.8 29.4 63 65.6 63h753.9c36.1 0 65.6-28.3 65.6-63V286.3c0-30.1-22.2-56-53-61.8-74.6-13.9-220.4-36.3-389.6-36.3z" fill="#6D7677" /><path d="M254 790l-5.6 15.6h-47.3l-5.6-15.6H254m42.5-30H153.1l26.9 75.6h89.6l26.9-75.6zM798.4 790l-5.8 15.6h-51.8L735 790h63.4m43.1-30H691.8l28.1 75.6h93.5l28.1-75.6z" fill="#6D7677" /><path d="M622.3 690.2m-34.8 0a34.8 34.8 0 1 0 69.6 0 34.8 34.8 0 1 0-69.6 0Z" fill="#6D7677" /><path d="M726.8 539.2c-39.9 0-72.4-32.5-72.4-72.4 0-39.9 32.5-72.4 72.4-72.4s72.4 32.5 72.4 72.4c-0.1 40-32.5 72.4-72.4 72.4z m0-114.7c-23.4 0-42.4 19-42.4 42.4s19 42.4 42.4 42.4 42.4-19 42.4-42.4-19.1-42.4-42.4-42.4z" fill="#6D7677" /><path d="M726.8 629.4c-89.6 0-162.5-72.9-162.5-162.5s72.9-162.5 162.5-162.5 162.5 72.9 162.5 162.5-72.9 162.5-162.5 162.5z m0-295c-73.1 0-132.5 59.4-132.5 132.5s59.4 132.5 132.5 132.5S859.3 540 859.3 466.9s-59.5-132.5-132.5-132.5z" fill="#6D7677" /><path d="M782.1 690.2m-34.8 0a34.8 34.8 0 1 0 69.6 0 34.8 34.8 0 1 0-69.6 0Z" fill="#6D7677" /><path d="M479 319.4H163.2c-10.1 0-18.3 8.2-18.3 18.3 0 10 8.2 18.3 18.3 18.3H479c10.1 0 18.3-8.2 18.3-18.3 0-10.1-8.2-18.3-18.3-18.3zM479 586H163.2c-10.1 0-18.3 8.2-18.3 18.3 0 10 8.2 18.3 18.3 18.3H479c10.1 0 18.3-8.2 18.3-18.3 0-10.1-8.2-18.3-18.3-18.3zM454.5 386H138.6c-10.1 0-18.3 8.2-18.3 18.3 0 10.1 8.2 18.3 18.3 18.3h315.8c10.1 0 18.3-8.2 18.3-18.3 0-10.1-8.2-18.3-18.2-18.3zM454.5 519.4H138.6c-10.1 0-18.3 8.2-18.3 18.3 0 10.1 8.2 18.3 18.3 18.3h315.8c10.1 0 18.3-8.2 18.3-18.3 0-10.1-8.2-18.3-18.2-18.3zM438.1 452.7H122.2c-10.1 0-18.3 8.2-18.3 18.3 0 10.1 8.2 18.3 18.3 18.3H438c10.1 0 18.3-8.2 18.3-18.3 0-10.1-8.2-18.3-18.2-18.3zM726.8 458.7c-4.5 0-8.2-3.7-8.2-8.2v-57.4c0-4.5 3.7-8.2 8.2-8.2 4.5 0 8.2 3.7 8.2 8.2v57.4c0 4.5-3.7 8.2-8.2 8.2z" fill="#6D7677" /><path d="M374.4 704.5h-82c-4.5 0-8.2-3.7-8.2-8.2 0-4.5 3.7-8.2 8.2-8.2h82c4.5 0 8.2 3.7 8.2 8.2 0 4.5-3.7 8.2-8.2 8.2z" fill="#3EF7D3" /></svg>