<svg class="svg-icon" style="width: 1em; height: 1em;vertical-align: middle;fill: currentColor;overflow: hidden;" viewBox="0 0 1024 1024" version="1.1" xmlns="http://www.w3.org/2000/svg"><path d="M778.7 959.6h-52.9V64.2h52.9c16.6 0 30 13.4 30 30v835.3c0 16.6-13.5 30.1-30 30.1z" fill="#414547" /><path d="M740.1 638.2H331.7c-16.6 0-30-13.4-30-30V506.3c0-16.6 13.4-30 30-30h408.4c16.6 0 30 13.4 30 30v101.9c0 16.6-13.4 30-30 30z" fill="#BCC1C0" /><path d="M745.5 94.2v835.3H241.8V94.2h503.7m0-30H241.8c-16.6 0-30 13.4-30 30v835.3c0 16.6 13.4 30 30 30h503.7c16.6 0 30-13.4 30-30V94.2c0-16.5-13.4-30-30-30z" fill="#6D7677" /><path d="M300 776.8V840h-35.1v-63.2H300m10-20h-55.1c-5.5 0-10 4.5-10 10V850c0 5.5 4.5 10 10 10H310c5.5 0 10-4.5 10-10v-83.2c0-5.5-4.4-10-10-10zM384.5 776.8V840h-35.1v-63.2h35.1m10-20h-55.1c-5.5 0-10 4.5-10 10V850c0 5.5 4.5 10 10 10h55.1c5.5 0 10-4.5 10-10v-83.2c0-5.5-4.5-10-10-10zM469 776.8V840h-35.1v-63.2H469m10-20h-55.1c-5.5 0-10 4.5-10 10V850c0 5.5 4.5 10 10 10H479c5.5 0 10-4.5 10-10v-83.2c0-5.5-4.5-10-10-10zM553.4 776.8V840h-35.1v-63.2h35.1m10-20h-55.1c-5.5 0-10 4.5-10 10V850c0 5.5 4.5 10 10 10h55.1c5.5 0 10-4.5 10-10v-83.2c0-5.5-4.5-10-10-10zM637.9 776.8V840h-35.1v-63.2h35.1m10-20h-55.1c-5.5 0-10 4.5-10 10V850c0 5.5 4.5 10 10 10h55.1c5.5 0 10-4.5 10-10v-83.2c0-5.5-4.5-10-10-10z" fill="#6D7677" /><path d="M732.4 860.1h-55.1c-5.5 0-10-4.5-10-10v-83.2c0-5.5 4.5-10 10-10h55.1c5.5 0 10 4.5 10 10v83.2c0 5.5-4.5 10-10 10z" fill="#2A7CF4" /><path d="M729.6 638.8H299.1c-24.8 0-45-20.2-45-45V471.4c0-24.8 20.2-45 45-45h430.5c24.8 0 45 20.2 45 45v122.4c0 24.8-20.2 45-45 45zM299.1 456.4c-8.3 0-15 6.7-15 15v122.4c0 8.3 6.7 15 15 15h430.5c8.3 0 15-6.7 15-15V471.4c0-8.3-6.7-15-15-15H299.1z" fill="#6D7677" /><path d="M402.5 553.3m-33.2 0a33.2 33.2 0 1 0 66.4 0 33.2 33.2 0 1 0-66.4 0Z" fill="#959596" /><path d="M402.5 601.5c-26.6 0-48.2-21.6-48.2-48.2s21.6-48.2 48.2-48.2 48.2 21.6 48.2 48.2c-0.1 26.6-21.7 48.2-48.2 48.2z m0-66.3c-10 0-18.2 8.1-18.2 18.2s8.1 18.2 18.2 18.2 18.2-8.1 18.2-18.2-8.2-18.2-18.2-18.2z" fill="#6D7677" /><path d="M584.8 553.3m-33.2 0a33.2 33.2 0 1 0 66.4 0 33.2 33.2 0 1 0-66.4 0Z" fill="#959596" /><path d="M584.8 601.5c-26.6 0-48.2-21.6-48.2-48.2s21.6-48.2 48.2-48.2 48.2 21.6 48.2 48.2-21.6 48.2-48.2 48.2z m0-66.3c-10 0-18.2 8.1-18.2 18.2s8.1 18.2 18.2 18.2 18.2-8.1 18.2-18.2-8.1-18.2-18.2-18.2zM535.1 715.7l11.7 11.7-11.7 11.8zM458.1 716.7l10.7 10.7-10.7 10.8zM442.9 716.7l10.7 10.7-10.7 10.8zM362.4 716.7l-10.7 10.7 10.7 10.8zM377.6 716.7l-10.7 10.7 10.7 10.8z" fill="#6D7677" /><path d="M278.1 727.4m-8.3 0a8.3 8.3 0 1 0 16.6 0 8.3 8.3 0 1 0-16.6 0Z" fill="#F42745" /><path d="M609.7 719.1h16.6v16.6h-16.6z" fill="#6D7677" /><path d="M625.3 720.1v14.6h-14.6v-14.6h14.6m1-1h-16.6v16.6h16.6v-16.6z" fill="#6D7677" /></svg>