<svg class="svg-icon" style="width: 1em; height: 1em;vertical-align: middle;fill: currentColor;overflow: hidden;" viewBox="0 0 1024 1024" version="1.1" xmlns="http://www.w3.org/2000/svg"><path d="M811.6 960.2h-49.8L728.7 80.8c0-9.2 7.4-16.6 16.6-16.6h33.2c9.2 0 16.6 7.4 16.6 16.6l33.2 862.8c-0.1 9.2-7.5 16.6-16.7 16.6z" fill="#AF6F5B" /><path d="M732.3 94.2l32.2 836H228.2l32.2-836h471.9m12.9-30H247.5c-9.2 0-16.6 7.4-16.6 16.6l-33.2 862.8c0 9.2 7.4 16.6 16.6 16.6h564.1c9.2 0 16.6-7.4 16.6-16.6L761.8 80.8c0-9.1-7.4-16.6-16.6-16.6z" fill="#6D7677" /><path d="M552.1 686.5m-107.8 0a107.8 107.8 0 1 0 215.6 0 107.8 107.8 0 1 0-215.6 0Z" fill="#8E8E8E" /><path d="M496.4 533.9c40.7 0 79 15.9 107.8 44.7 28.8 28.8 44.7 67.1 44.7 107.8s-15.9 79-44.7 107.8c-28.8 28.8-67.1 44.7-107.8 44.7s-79-15.9-107.8-44.7-44.7-67.1-44.7-107.8 15.9-79 44.7-107.8 67-44.7 107.8-44.7m0-30c-100.8 0-182.5 81.7-182.5 182.5S395.6 869 496.4 869s182.5-81.7 182.5-182.5-81.7-182.6-182.5-182.6z" fill="#6D7677" /><path d="M546.1 271.6m-83 0a83 83 0 1 0 166 0 83 83 0 1 0-166 0Z" fill="#EFB054" /><path d="M496.4 608.6c42.9 0 77.8 34.9 77.8 77.8s-34.9 77.8-77.8 77.8-77.8-34.9-77.8-77.8 34.8-77.8 77.8-77.8m0-30c-59.6 0-107.8 48.3-107.8 107.8 0 59.6 48.3 107.8 107.8 107.8 59.6 0 107.8-48.3 107.8-107.8s-48.3-107.8-107.8-107.8zM496.4 185.5c47.5 0 86.1 38.6 86.1 86.1s-38.6 86.1-86.1 86.1-86.1-38.6-86.1-86.1 38.6-86.1 86.1-86.1m0-30c-64.1 0-116.1 52-116.1 116.1s52 116.1 116.1 116.1 116.1-52 116.1-116.1-52-116.1-116.1-116.1z" fill="#6D7677" /><path d="M283.5 118.2m-12.4 0a12.4 12.4 0 1 0 24.8 0 12.4 12.4 0 1 0-24.8 0Z" fill="#8E8E8E" /><path d="M703.9 118.2m-12.4 0a12.4 12.4 0 1 0 24.8 0 12.4 12.4 0 1 0-24.8 0Z" fill="#8E8E8E" /><path d="M259.6 906.3m-12.4 0a12.4 12.4 0 1 0 24.8 0 12.4 12.4 0 1 0-24.8 0Z" fill="#8E8E8E" /><path d="M733.1 906.3m-12.4 0a12.4 12.4 0 1 0 24.8 0 12.4 12.4 0 1 0-24.8 0Z" fill="#8E8E8E" /></svg>