<svg class="svg-icon" style="width: 1em; height: 1em;vertical-align: middle;fill: currentColor;overflow: hidden;" viewBox="0 0 1024 1024" version="1.1" xmlns="http://www.w3.org/2000/svg"><path d="M780.9 959.6h-36.2v-745h36.2c16.6 0 30 13.4 30 30v684.9c0 16.6-13.4 30.1-30 30.1z" fill="#FCEF49" /><path d="M739.5 231.2h-36.2V65.7h36.2c16.6 0 30 13.4 30 30v105.5c0 16.6-13.4 30-30 30z" fill="#FCEF49" /><path d="M232.1 329.9h-144c-5.3 0-9.6 4.3-9.6 9.6V360c0 5.3 4.3 9.6 9.6 9.6h144c0.4 0 0.7-0.3 0.7-0.7v-38.2c0-0.5-0.3-0.8-0.7-0.8z" fill="#383838" /><path d="M95.1 529.2h91c9.1 0 16.6-9.3 16.6-20.9v-35.1c0-4.3-1.1-8.5-3-12-8.9-16.2-34.9-52.5-38.1-151.9-0.4-11.2-7.6-20.2-16.5-20.2H137c-9.2 0-16.6 9.4-16.6 21 0.2 39-0.5 104.3-35.2 151.2-3.6 4.8-6.7 10.1-6.7 16.7v30.3c0 11.5 7.5 20.9 16.6 20.9z" fill="#EFEFEF" /><path d="M186.1 544.2h-91c-17.4 0-31.6-16.1-31.6-35.9V478c0-11.1 5.2-19.5 9.7-25.6 32.6-44.2 32.4-108 32.2-142.2 0-10.4 3.8-20.3 10.6-27.1 5.8-5.8 13.2-9 21-9h8.1c17 0 30.9 15.2 31.5 34.7 2.8 87.4 23.5 123.2 33.5 140.4 1 1.7 1.9 3.3 2.7 4.7 3.2 5.8 4.9 12.4 4.9 19.3v35.1c0 19.8-14.2 35.9-31.6 35.9z m-90.6-30h90.2c0.7-0.6 2-2.6 2-5.9v-35.1c0-1.7-0.4-3.4-1.1-4.8-0.7-1.3-1.5-2.7-2.4-4.2-11.2-19.3-34.5-59.5-37.5-154.5-0.1-3.2-1.4-5.1-2-5.6h-7.2c-0.7 0.6-2 2.6-2 5.9 0.1 35 0.4 108-38.1 160.2-2.7 3.7-3.8 5.9-3.8 7.8v30.3c-0.1 3.3 1.3 5.3 1.9 5.9zM756.1 244.6v684.9H253.3V244.6h502.8m0-30H253.3c-16.6 0-30 13.4-30 30v684.9c0 16.6 13.4 30 30 30h502.8c16.6 0 30-13.4 30-30V244.6c0-16.5-13.4-30-30-30z" fill="#6D7677" /><path d="M714.7 95.7v105.5H286.4V95.7h428.3m0-30H286.4c-16.6 0-30 13.4-30 30v135.5h488.3V95.7c0-16.6-13.4-30-30-30z" fill="#6D7677" /><path d="M362.1 392.6m-86.9 0a86.9 86.9 0 1 0 173.8 0 86.9 86.9 0 1 0-173.8 0Z" fill="#F4CB4A" /><path d="M392.9 327.4c35.9 0 65.2 29.2 65.2 65.2s-29.2 65.2-65.2 65.2-65.2-29.2-65.2-65.2 29.3-65.2 65.2-65.2m0-30c-52.6 0-95.2 42.6-95.2 95.2s42.6 95.2 95.2 95.2 95.2-42.6 95.2-95.2-42.6-95.2-95.2-95.2z" fill="#6D7677" /><path d="M602.1 392.6m-86.9 0a86.9 86.9 0 1 0 173.8 0 86.9 86.9 0 1 0-173.8 0Z" fill="#F4CB4A" /><path d="M633 327.4c35.9 0 65.2 29.2 65.2 65.2S669 457.8 633 457.8s-65.2-29.2-65.2-65.2 29.2-65.2 65.2-65.2m0-30c-52.6 0-95.2 42.6-95.2 95.2s42.6 95.2 95.2 95.2 95.2-42.6 95.2-95.2-42.7-95.2-95.2-95.2z" fill="#6D7677" /><path d="M464.4 698.8m-144.8 0a144.8 144.8 0 1 0 289.6 0 144.8 144.8 0 1 0-289.6 0Z" fill="#F4CB4A" /><path d="M508.8 584c30.7 0 59.5 11.9 81.2 33.6 21.7 21.7 33.6 50.5 33.6 81.2S611.7 758.4 590 780c-21.7 21.7-50.5 33.6-81.2 33.6s-59.5-11.9-81.2-33.6c-21.7-21.7-33.6-50.5-33.6-81.2s11.9-59.5 33.6-81.2c21.7-21.7 50.5-33.6 81.2-33.6m0-30c-80 0-144.8 64.8-144.8 144.8 0 80 64.8 144.8 144.8 144.8s144.8-64.8 144.8-144.8c0.1-80-64.8-144.8-144.8-144.8zM831.6 651.8h-53.8c-8.3 0-15-6.7-15-15s6.7-15 15-15h38.8V504.3c0-8.3 6.7-15 15-15h20.7c8.3 0 15 6.7 15 15s-6.7 15-15 15h-5.7v117.4c0 8.3-6.7 15.1-15 15.1z" fill="#6D7677" /><path d="M935.2 544.2h-60.8c-16.6 0-30.1-14.1-30.1-31.5v-24.9c0-17.4 13.5-31.5 30.1-31.5h60.8c16.6 0 30.1 14.1 30.1 31.5v24.9c0 17.3-13.5 31.5-30.1 31.5z m-60.4-30h60.1c0.2-0.2 0.5-0.7 0.5-1.5v-24.9c0-0.8-0.3-1.3-0.5-1.5h-60.1c-0.2 0.2-0.5 0.7-0.5 1.5v24.9c0 0.7 0.3 1.2 0.5 1.5z" fill="#6D7677" /><path d="M354.6 144.3m-20.7 0a20.7 20.7 0 1 0 41.4 0 20.7 20.7 0 1 0-41.4 0Z" fill="#6D7677" /><path d="M450.9 144.3m-20.7 0a20.7 20.7 0 1 0 41.4 0 20.7 20.7 0 1 0-41.4 0Z" fill="#6D7677" /><path d="M552.4 144.3m-20.7 0a20.7 20.7 0 1 0 41.4 0 20.7 20.7 0 1 0-41.4 0Z" fill="#6D7677" /><path d="M648.7 144.3m-20.7 0a20.7 20.7 0 1 0 41.4 0 20.7 20.7 0 1 0-41.4 0Z" fill="#6D7677" /></svg>