<svg class="svg-icon" style="width: 1em; height: 1em;vertical-align: middle;fill: currentColor;overflow: hidden;" viewBox="0 0 1024 1024" version="1.1" xmlns="http://www.w3.org/2000/svg"><path d="M873 915.2v-41.9H156.3v41.9c0 16.6 13.4 30 30 30H843c16.6 0 30-13.5 30-30z" fill="#8E8E8E" /><path d="M845.7 302v587.7H182.6V302h663.1m28-30H154.6c-1.1 0-2 0.9-2 2v615.7c0 16.6 13.4 30 30 30h663.1c16.6 0 30-13.4 30-30V274c0-1.1-0.9-2-2-2z" fill="#6D7677" /><path d="M922.8 321.8c0 38.5-31.2 69.7-69.7 69.7H176.2c-38.5 0-69.7-31.2-69.7-69.7s31.2-69.7 69.7-69.7h676.9c38.5 0 69.7 31.2 69.7 69.7z" fill="#4C4B4B" /><path d="M853.1 376.6H176.2c-46.7 0-84.7-38-84.7-84.7s38-84.7 84.7-84.7h676.9c46.7 0 84.7 38 84.7 84.7s-38 84.7-84.7 84.7zM176.2 237.2c-30.2 0-54.7 24.5-54.7 54.7 0 30.2 24.5 54.7 54.7 54.7h676.9c30.2 0 54.7-24.5 54.7-54.7 0-30.2-24.5-54.7-54.7-54.7H176.2z" fill="#6D7677" /><path d="M683.1 381.5h-19.2c0 38.5-31.2 69.7-69.7 69.7H435c-38.5 0-69.7-31.2-69.7-69.7h-19.2c-17 0-26.3-20-15.2-32.9 25.4-29.6 76-56.7 104-56.7h159.3c28 0 78.6 27.1 104 56.7 11.2 13 1.9 32.9-15.1 32.9z" fill="#898989" /><path d="M594.3 461.2H435c-40.5 0-74.1-30.4-79.1-69.7h-9.8c-11.8 0-22.3-6.7-27.2-17.5-4.9-10.7-3.2-23 4.5-31.9 27-31.5 80.2-60.2 111.6-60.2h159.3c31.4 0 84.6 28.7 111.6 60.2 7.7 9 9.4 21.2 4.5 31.9-5 10.8-15.4 17.5-27.2 17.5h-9.8c-5 39.2-38.6 69.7-79.1 69.7zM435 301.9c-23 0-71.1 23.7-96.4 53.2-3.8 4.4-2.1 9.2-1.5 10.5 0.6 1.4 3.1 5.8 9.1 5.8h29.2v10c0 32.9 26.8 59.7 59.7 59.7h159.3c32.9 0 59.7-26.8 59.7-59.7v-10h29.2c5.9 0 8.4-4.5 9.1-5.8 0.6-1.3 2.3-6.1-1.5-10.5-25.3-29.5-73.4-53.2-96.4-53.2H435zM768.5 854.4H270.8c-22 0-39.9-17.9-39.9-39.9s17.9-39.9 39.9-39.9h497.7c22 0 39.9 17.9 39.9 39.9s-17.9 39.9-39.9 39.9z m-497.7-49.7c-5.5 0-9.9 4.4-9.9 9.9s4.4 9.9 9.9 9.9h497.7c5.5 0 9.9-4.4 9.9-9.9s-4.4-9.9-9.9-9.9H270.8zM255.8 558.8c10.7 0 19.8 9.1 19.8 19.8 0 10.7-9.1 19.8-19.8 19.8-10.7 0-19.8-9.1-19.8-19.8s9.1-19.8 19.8-19.8m0-30c-27.4 0-49.8 22.4-49.8 49.8s22.4 49.8 49.8 49.8 49.8-22.4 49.8-49.8-22.4-49.8-49.8-49.8zM385.2 558.8c10.7 0 19.8 9.1 19.8 19.8 0 10.7-9.1 19.8-19.8 19.8-10.7 0-19.8-9.1-19.8-19.8s9.1-19.8 19.8-19.8m0-30c-27.4 0-49.8 22.4-49.8 49.8s22.4 49.8 49.8 49.8S435 606 435 578.6s-22.4-49.8-49.8-49.8zM644.1 558.8c10.9 0 19.8 8.9 19.8 19.8s-8.9 19.8-19.8 19.8-19.8-8.9-19.8-19.8 8.9-19.8 19.8-19.8m0-30c-27.5 0-49.8 22.3-49.8 49.8 0 27.5 22.3 49.8 49.8 49.8 27.5 0 49.8-22.3 49.8-49.8-0.1-27.5-22.4-49.8-49.8-49.8zM773.5 558.8c10.7 0 19.8 9.1 19.8 19.8 0 10.7-9.1 19.8-19.8 19.8-10.7 0-19.8-9.1-19.8-19.8s9-19.8 19.8-19.8m0-30c-27.4 0-49.8 22.4-49.8 49.8s22.4 49.8 49.8 49.8 49.8-22.4 49.8-49.8c-0.1-27.4-22.5-49.8-49.8-49.8zM514.6 558.8c10.7 0 19.8 9.1 19.8 19.8 0 10.7-9.1 19.8-19.8 19.8-10.7 0-19.8-9.1-19.8-19.8s9.1-19.8 19.8-19.8m0-30c-27.4 0-49.8 22.4-49.8 49.8s22.4 49.8 49.8 49.8 49.8-22.4 49.8-49.8-22.4-49.8-49.8-49.8zM325.5 681.2c10.7 0 19.8 9.1 19.8 19.8s-9.1 19.8-19.8 19.8c-10.7 0-19.8-9.1-19.8-19.8 0-10.7 9.1-19.8 19.8-19.8m0-30c-27.4 0-49.8 22.4-49.8 49.8s22.4 49.8 49.8 49.8 49.8-22.4 49.8-49.8-22.4-49.8-49.8-49.8zM454.9 681.2c10.7 0 19.8 9.1 19.8 19.8s-9.1 19.8-19.8 19.8-19.8-9.1-19.8-19.8c0-10.7 9.1-19.8 19.8-19.8m0-30c-27.4 0-49.8 22.4-49.8 49.8s22.4 49.8 49.8 49.8 49.8-22.4 49.8-49.8-22.4-49.8-49.8-49.8zM713.7 681.2c10.7 0 19.8 9.1 19.8 19.8s-9.1 19.8-19.8 19.8c-10.7 0-19.8-9.1-19.8-19.8 0.1-10.7 9.1-19.8 19.8-19.8m0-30c-27.4 0-49.8 22.4-49.8 49.8s22.4 49.8 49.8 49.8 49.8-22.4 49.8-49.8-22.4-49.8-49.8-49.8zM584.3 681.2c10.7 0 19.8 9.1 19.8 19.8s-9.1 19.8-19.8 19.8c-10.7 0-19.8-9.1-19.8-19.8 0.1-10.7 9.1-19.8 19.8-19.8m0-30c-27.4 0-49.8 22.4-49.8 49.8s22.4 49.8 49.8 49.8 49.8-22.4 49.8-49.8-22.4-49.8-49.8-49.8z" fill="#6D7677" /><path d="M73.7 466.1c-21.9 0-39.8-17.9-39.8-39.8V316.8c0-21.9 17.9-39.8 39.8-39.8s39.8 17.9 39.8 39.8v109.5c0 21.9-17.9 39.8-39.8 39.8z" fill="#E5E5E5" /><path d="M73.7 481.1c-30.2 0-54.8-24.6-54.8-54.8V316.8c0-30.2 24.6-54.8 54.8-54.8s54.8 24.6 54.8 54.8v109.5c0 30.2-24.6 54.8-54.8 54.8z m0-189.1c-13.7 0-24.8 11.1-24.8 24.8v109.5c0 13.7 11.1 24.8 24.8 24.8s24.8-11.1 24.8-24.8V316.8c0-13.7-11.1-24.8-24.8-24.8z" fill="#6D7677" /><path d="M951.6 331.7c-21.9 0-39.8-17.9-39.8-39.8s17.9-39.8 39.8-39.8 39.8 17.9 39.8 39.8c0.1 21.9-17.9 39.8-39.8 39.8z" fill="#E5E5E5" /><path d="M951.6 346.7c-30.2 0-54.8-24.6-54.8-54.8 0-30.2 24.6-54.8 54.8-54.8s54.8 24.6 54.8 54.8c0.1 30.3-24.5 54.8-54.8 54.8z m0-79.6c-13.7 0-24.8 11.1-24.8 24.8 0 13.7 11.1 24.8 24.8 24.8s24.8-11.1 24.8-24.8c0.1-13.7-11.1-24.8-24.8-24.8z" fill="#6D7677" /><path d="M206.1 92.8h617.2v268.8H206.1z" fill="#FFFFFF" /><path d="M838.2 376.6H191.1V77.8h647.2v298.8z m-617.1-30h587.2V107.8H221.1v238.8z" fill="#6D7677" /></svg>